<?xml version="1.0" encoding="UTF-8" standalone="no" ?>
<!DOCTYPE svg PUBLIC "-//W3C//DTD SVG 1.1//EN" "http://www.w3.org/Graphics/SVG/1.1/DTD/svg11.dtd">
<svg width="145mm" xmlns="http://www.w3.org/2000/svg" height="96mm" version="1.1" viewBox="0 0 548 364" xmlns:xlink="http://www.w3.org/1999/xlink">
   <polyline fill="none" points="179,203 179,148 238,148 238,114" stroke="#800040" stroke-width="1"/>
   <polygon fill="#ffffff" points="238,119 245,133 232,133" stroke="#800040" stroke-width="1" stroke-linejoin="miter"/>
   <polyline fill="none" points="303,187 303,147 239,147 239,113" stroke="#800040" stroke-width="1"/>
   <polygon fill="#ffffff" points="239,119 246,133 232,133" stroke="#800040" stroke-width="1" stroke-linejoin="miter"/>
   <polyline fill="none" points="291,60 412,60" stroke="#800040" stroke-width="1"/>
   <text x="320" y="55" fill="#000000" font-size="10" font-family="Arial" text-anchor="middle">1..1</text>
   <text x="389" y="69" fill="#000000" font-size="10" font-family="Arial" text-anchor="middle">0..*</text>
   <polyline fill="none" points="90,58 178,58" stroke="#800040" stroke-width="1"/>
   <text x="109" y="53" fill="#000000" font-size="10" font-family="Arial" text-anchor="middle">1..1</text>
   <text x="167" y="73" fill="#000000" font-size="10" font-family="Arial" text-anchor="middle">0..*</text>
   <defs>
      <linearGradient id="Gradient1" x1="0%" x2="100%" y1="0%" y2="100%" gradientUnits="objectBoundingBox">
         <stop offset="5%" stop-color="#ffffff"/>
         <stop offset="95%" stop-color="#e9ca83"/>
      </linearGradient>
   </defs>
   <rect x="2" y="8" fill="url(#Gradient1)" width="93" height="77" stroke="#800000" stroke-width="1"/>
   <text x="48" y="19" fill="#000000" font-size="10" font-family="Arial" text-anchor="middle">Customer</text>
   <line x1="2" x2="95" y1="25" y2="25" stroke="#800000" stroke-width="1"/>
   <text x="7" y="35" fill="#000000" font-size="10" font-family="Arial">-</text>
   <text x="7" y="48" fill="#000000" font-size="10" font-family="Arial">-</text>
   <text x="7" y="61" fill="#000000" font-size="10" font-family="Arial">-</text>
   <text x="18" y="35" fill="#000000" font-size="10" font-family="Arial">id</text>
   <text x="18" y="48" fill="#000000" font-size="10" font-family="Arial">name</text>
   <text x="18" y="61" fill="#000000" font-size="10" font-family="Arial">email</text>
   <text x="53" y="35" fill="#000000" font-size="10" font-family="Arial">: String</text>
   <text x="53" y="48" fill="#000000" font-size="10" font-family="Arial">: String</text>
   <text x="53" y="61" fill="#000000" font-size="10" font-family="Arial">: String</text>
   <line x1="2" x2="95" y1="68" y2="68" stroke="#800000" stroke-width="1"/>
   <defs>
      <linearGradient id="Gradient2" x1="0%" x2="100%" y1="0%" y2="100%" gradientUnits="objectBoundingBox">
         <stop offset="5%" stop-color="#ffffff"/>
         <stop offset="95%" stop-color="#e9ca83"/>
      </linearGradient>
   </defs>
   <rect x="178" y="2" fill="url(#Gradient2)" width="129" height="117" stroke="#800000" stroke-width="1"/>
   <text x="242" y="13" fill="#000000" font-size="10" font-family="Arial" text-anchor="middle">BankAccount</text>
   <text x="303" y="27" fill="#000000" font-size="10" font-family="Arial" text-anchor="end">{abstract} </text>
   <line x1="178" x2="307" y1="34" y2="34" stroke="#800000" stroke-width="1"/>
   <text x="182" y="44" fill="#000000" font-size="10" font-family="Arial">-</text>
   <text x="182" y="56" fill="#000000" font-size="10" font-family="Arial">-</text>
   <text x="182" y="69" fill="#000000" font-size="10" font-family="Arial">-</text>
   <text x="182" y="82" fill="#000000" font-size="10" font-family="Arial">-</text>
   <text x="182" y="95" fill="#000000" font-size="10" font-family="Arial">-</text>
   <text x="193" y="44" fill="#000000" font-size="10" font-family="Arial">id</text>
   <text x="193" y="56" fill="#000000" font-size="10" font-family="Arial">createdAt</text>
   <text x="193" y="69" fill="#000000" font-size="10" font-family="Arial">balance</text>
   <text x="193" y="82" fill="#000000" font-size="10" font-family="Arial">status</text>
   <text x="193" y="95" fill="#000000" font-size="10" font-family="Arial">currency</text>
   <text x="246" y="44" fill="#000000" font-size="10" font-family="Arial">: String</text>
   <text x="246" y="56" fill="#000000" font-size="10" font-family="Arial">: Date</text>
   <text x="246" y="69" fill="#000000" font-size="10" font-family="Arial">: double</text>
   <text x="246" y="82" fill="#000000" font-size="10" font-family="Arial">: AccStatus</text>
   <text x="246" y="95" fill="#000000" font-size="10" font-family="Arial">: String</text>
   <line x1="178" x2="307" y1="102" y2="102" stroke="#800000" stroke-width="1"/>
   <defs>
      <linearGradient id="Gradient3" x1="0%" x2="100%" y1="0%" y2="100%" gradientUnits="objectBoundingBox">
         <stop offset="5%" stop-color="#ffffff"/>
         <stop offset="95%" stop-color="#e9ca83"/>
      </linearGradient>
   </defs>
   <rect x="400" y="7" fill="url(#Gradient3)" width="146" height="90" stroke="#800000" stroke-width="1"/>
   <text x="473" y="18" fill="#000000" font-size="10" font-family="Arial" text-anchor="middle">Operation</text>
   <line x1="400" x2="546" y1="24" y2="24" stroke="#800000" stroke-width="1"/>
   <text x="405" y="34" fill="#000000" font-size="10" font-family="Arial">-</text>
   <text x="405" y="47" fill="#000000" font-size="10" font-family="Arial">-</text>
   <text x="405" y="60" fill="#000000" font-size="10" font-family="Arial">-</text>
   <text x="405" y="73" fill="#000000" font-size="10" font-family="Arial">-</text>
   <text x="416" y="34" fill="#000000" font-size="10" font-family="Arial">id</text>
   <text x="416" y="47" fill="#000000" font-size="10" font-family="Arial">date</text>
   <text x="416" y="60" fill="#000000" font-size="10" font-family="Arial">amount</text>
   <text x="416" y="73" fill="#000000" font-size="10" font-family="Arial">type</text>
   <text x="460" y="34" fill="#000000" font-size="10" font-family="Arial">: long</text>
   <text x="460" y="47" fill="#000000" font-size="10" font-family="Arial">: Date</text>
   <text x="460" y="60" fill="#000000" font-size="10" font-family="Arial">: double</text>
   <text x="460" y="73" fill="#000000" font-size="10" font-family="Arial">: OperationType</text>
   <line x1="400" x2="546" y1="80" y2="80" stroke="#800000" stroke-width="1"/>
   <defs>
      <linearGradient id="Gradient4" x1="0%" x2="100%" y1="0%" y2="100%" gradientUnits="objectBoundingBox">
         <stop offset="5%" stop-color="#ffffff"/>
         <stop offset="95%" stop-color="#e9ca83"/>
      </linearGradient>
   </defs>
   <rect x="90" y="183" fill="url(#Gradient4)" width="114" height="51" stroke="#800000" stroke-width="1"/>
   <text x="147" y="194" fill="#000000" font-size="10" font-family="Arial" text-anchor="middle">CurrentAccount</text>
   <line x1="90" x2="204" y1="200" y2="200" stroke="#800000" stroke-width="1"/>
   <text x="94" y="210" fill="#000000" font-size="10" font-family="Arial">-</text>
   <text x="105" y="210" fill="#000000" font-size="10" font-family="Arial">overDraft</text>
   <text x="155" y="210" fill="#000000" font-size="10" font-family="Arial">: double</text>
   <line x1="90" x2="204" y1="217" y2="217" stroke="#800000" stroke-width="1"/>
   <defs>
      <linearGradient id="Gradient5" x1="0%" x2="100%" y1="0%" y2="100%" gradientUnits="objectBoundingBox">
         <stop offset="5%" stop-color="#ffffff"/>
         <stop offset="95%" stop-color="#e9ca83"/>
      </linearGradient>
   </defs>
   <rect x="258" y="182" fill="url(#Gradient5)" width="128" height="51" stroke="#800000" stroke-width="1"/>
   <text x="322" y="193" fill="#000000" font-size="10" font-family="Arial" text-anchor="middle">SavingAccount</text>
   <line x1="258" x2="386" y1="199" y2="199" stroke="#800000" stroke-width="1"/>
   <text x="262" y="209" fill="#000000" font-size="10" font-family="Arial">-</text>
   <text x="273" y="209" fill="#000000" font-size="10" font-family="Arial">interestRate</text>
   <text x="337" y="209" fill="#000000" font-size="10" font-family="Arial">: double</text>
   <line x1="258" x2="386" y1="216" y2="216" stroke="#800000" stroke-width="1"/>
   <defs>
      <linearGradient id="Gradient6" x1="0%" x2="100%" y1="0%" y2="100%" gradientUnits="objectBoundingBox">
         <stop offset="5%" stop-color="#ffffff"/>
         <stop offset="95%" stop-color="#80ffff"/>
      </linearGradient>
   </defs>
   <rect x="187" y="272" fill="url(#Gradient6)" width="147" height="79" stroke="#800000" stroke-width="1"/>
   <text x="260" y="283" fill="#000000" font-size="10" font-family="Arial" text-anchor="middle">&lt;&lt;Enum&gt;&gt;</text>
   <text x="260" y="298" fill="#000000" font-size="10" font-family="Arial" text-anchor="middle">OperationType</text>
   <line x1="187" x2="334" y1="304" y2="304" stroke="#800000" stroke-width="1"/>
   <text x="192" y="314" fill="#000000" font-size="10" font-family="Arial">-</text>
   <text x="192" y="327" fill="#000000" font-size="10" font-family="Arial">-</text>
   <text x="203" y="314" fill="#000000" font-size="10" font-family="Arial">CREDIT</text>
   <text x="203" y="327" fill="#000000" font-size="10" font-family="Arial">DEBIT</text>
   <text x="249" y="314" fill="#000000" font-size="10" font-family="Arial">: EnumConstant</text>
   <text x="249" y="327" fill="#000000" font-size="10" font-family="Arial">: EnumConstant</text>
   <line x1="187" x2="334" y1="334" y2="334" stroke="#800000" stroke-width="1"/>
   <defs>
      <linearGradient id="Gradient7" x1="0%" x2="100%" y1="0%" y2="100%" gradientUnits="objectBoundingBox">
         <stop offset="5%" stop-color="#ffffff"/>
         <stop offset="95%" stop-color="#80ffff"/>
      </linearGradient>
   </defs>
   <rect x="380" y="274" fill="url(#Gradient7)" width="165" height="88" stroke="#800000" stroke-width="1"/>
   <text x="462" y="285" fill="#000000" font-size="10" font-family="Arial" text-anchor="middle">&lt;&lt;Enum&gt;&gt;</text>
   <text x="462" y="300" fill="#000000" font-size="10" font-family="Arial" text-anchor="middle">AccountStatus</text>
   <line x1="380" x2="545" y1="306" y2="306" stroke="#800000" stroke-width="1"/>
   <text x="384" y="316" fill="#000000" font-size="10" font-family="Arial">-</text>
   <text x="384" y="329" fill="#000000" font-size="10" font-family="Arial">-</text>
   <text x="384" y="342" fill="#000000" font-size="10" font-family="Arial">-</text>
   <text x="395" y="316" fill="#000000" font-size="10" font-family="Arial">CREATED</text>
   <text x="395" y="329" fill="#000000" font-size="10" font-family="Arial">ACTIVATED</text>
   <text x="395" y="342" fill="#000000" font-size="10" font-family="Arial">SUSPENDED</text>
   <text x="466" y="316" fill="#000000" font-size="10" font-family="Arial">: EnumConstant</text>
   <text x="466" y="329" fill="#000000" font-size="10" font-family="Arial">: EnumConstant</text>
   <text x="466" y="342" fill="#000000" font-size="10" font-family="Arial">: EnumConstant</text>
   <line x1="380" x2="545" y1="349" y2="349" stroke="#800000" stroke-width="1"/>
</svg>
